<svg width="15" height="18" viewBox="0 0 15 18" fill="none" xmlns="http://www.w3.org/2000/svg">
<path fill-rule="evenodd" clip-rule="evenodd" d="M0.925204 5.04688H13.7969L14.7221 17.9997H0L0.925204 5.04688ZM2.02163 6.22441L1.26464 16.8222H13.4575L12.7005 6.22441H2.02163Z" fill="black"/>
<path fill-rule="evenodd" clip-rule="evenodd" d="M5.81927 1.87902C5.52832 2.28312 5.42558 2.78572 5.42558 3.11205V7.31752H4.24805V3.11205C4.24805 2.59729 4.39763 1.83825 4.86367 1.19098C5.35131 0.513689 6.15889 0 7.3601 0C8.5613 0 9.36888 0.513689 9.85652 1.19098C10.3226 1.83825 10.4721 2.59729 10.4721 3.11205V7.31752H9.29461V3.11205C9.29461 2.78572 9.19187 2.28312 8.90092 1.87902C8.63158 1.50494 8.17752 1.17753 7.3601 1.17753C6.54267 1.17753 6.08861 1.50494 5.81927 1.87902Z" fill="black"/>
</svg>
